<svg width="47" height="47" viewBox="0 0 47 47" fill="none" xmlns="http://www.w3.org/2000/svg">
<g clip-path="url(#clip0_6766_189301)">
<path d="M23.5 0C10.5162 0 0 10.5426 0 23.5589C0 36.5752 10.5162 47.1178 23.5 47.1178C36.4837 47.1178 47 36.5752 47 23.5589C47 10.5426 36.4837 0 23.5 0ZM34.2513 32.9942C34.169 33.1003 34.0985 33.4654 34.0515 33.6892C34.0045 33.913 33.9575 34.1368 33.887 34.3724C33.793 34.7023 33.5462 34.8789 33.2055 34.8789H33.1937H33.182C33.0175 34.8789 32.7942 34.8554 32.524 34.7965C32.0775 34.714 31.584 34.6316 30.9613 34.6316C30.597 34.6316 30.221 34.6669 29.8333 34.7258C29.093 34.8554 28.4585 35.2912 27.73 35.8095C26.6842 36.5516 25.4975 37.388 23.6997 37.388C23.6175 37.388 23.547 37.388 23.4882 37.388C23.4412 37.388 23.3943 37.388 23.3355 37.388C21.5378 37.388 20.351 36.5516 19.3053 35.8095C18.5767 35.2912 17.9422 34.8436 17.202 34.7258C16.826 34.6669 16.4382 34.6316 16.074 34.6316C15.416 34.6316 14.8872 34.7376 14.5112 34.8083C14.2528 34.8554 14.0295 34.9025 13.8533 34.9025C13.395 34.9025 13.207 34.6198 13.1365 34.3842C13.066 34.1486 13.019 33.913 12.972 33.6892C12.925 33.4654 12.8427 33.1003 12.7605 32.9942C10.4575 32.6409 9.20025 32.1226 8.89475 31.4158C8.8595 31.3216 8.836 31.2391 8.82425 31.1449C8.8125 30.8386 9.024 30.5559 9.3295 30.5088C13.3245 29.8491 15.1223 25.7381 15.1927 25.5614C15.1927 25.5496 15.2045 25.5378 15.2045 25.5261C15.416 25.0902 15.463 24.7251 15.3455 24.4424C15.1105 23.9005 14.2645 23.6296 13.7005 23.4529C13.5477 23.4058 13.395 23.3586 13.2775 23.3115C11.9145 22.7697 11.7265 22.1571 11.8088 21.7331C11.9145 21.1441 12.643 20.7436 13.2422 20.7436C13.4185 20.7436 13.5712 20.7789 13.7122 20.8378C14.2292 21.0734 14.6757 21.203 15.0635 21.203C15.3572 21.203 15.5335 21.1323 15.6393 21.0734C15.6275 20.8378 15.6157 20.5905 15.5922 20.3549C15.463 18.3524 15.3102 15.8669 15.9682 14.4063C17.907 10.0479 22.0077 9.71805 23.2297 9.71805C23.265 9.71805 23.735 9.71805 23.735 9.71805C23.7585 9.71805 23.782 9.71805 23.8055 9.71805C25.0158 9.71805 29.14 10.0596 31.0788 14.418C31.7367 15.8787 31.5723 18.3759 31.443 20.3784V20.4609C31.4313 20.6847 31.4195 20.885 31.4077 21.0852C31.5017 21.1323 31.6545 21.1912 31.9013 21.203C32.2655 21.1912 32.6885 21.0617 33.1702 20.8378C33.37 20.7436 33.5815 20.72 33.7342 20.72C33.9458 20.72 34.169 20.7672 34.3452 20.8378C34.8857 21.0381 35.2265 21.4268 35.2383 21.8627C35.25 22.4281 34.7447 22.911 33.7577 23.2997C33.6402 23.3469 33.4875 23.394 33.3348 23.4411C32.7708 23.6178 31.9248 23.8887 31.6898 24.4306C31.5723 24.7133 31.6192 25.0784 31.8307 25.5143C31.8307 25.5261 31.8425 25.5378 31.8425 25.5496C31.913 25.7263 33.7108 29.8373 37.7057 30.497C38.0112 30.5441 38.2345 30.8268 38.211 31.1331C38.211 31.2273 38.1875 31.3216 38.1405 31.404C37.8232 32.1226 36.5542 32.6409 34.2513 32.9942Z" fill="#737373"/>
</g>
<defs>
<clipPath id="clip0_6766_189301">
<rect width="47" height="47" fill="white"/>
</clipPath>
</defs>
</svg>
