<svg width="47" height="47" viewBox="0 0 47 47" fill="none" xmlns="http://www.w3.org/2000/svg">
<g clip-path="url(#clip0_6766_189307)">
<path fill-rule="evenodd" clip-rule="evenodd" d="M22.8286 36.2571C21.4454 36.2571 20.1083 36.048 18.8518 35.6586C19.4004 34.7666 20.2196 33.3048 20.5208 32.1384L21.3591 28.9462C21.7984 29.7827 23.076 30.4886 24.4362 30.4886C28.4858 30.4886 31.4056 26.7651 31.4056 22.136C31.4056 17.7008 27.7837 14.382 23.1259 14.382C17.3305 14.382 14.2535 18.2705 14.2535 22.5063C14.2535 24.4764 15.3028 26.9281 16.9814 27.7089C17.2346 27.8278 17.3708 27.7741 17.4303 27.5286L17.8005 26.0073C17.8331 25.8711 17.8178 25.7541 17.7065 25.6198C17.154 24.9484 16.7071 23.711 16.7071 22.5562C16.7071 19.5942 18.9496 16.7282 22.771 16.7282C26.0706 16.7282 28.3803 18.9765 28.3803 22.1917C28.3803 25.8251 26.5444 28.34 24.158 28.34C22.8401 28.34 21.854 27.2504 22.1706 25.9133C22.5485 24.3153 23.2832 22.5945 23.2832 21.4416C23.2832 20.4114 22.7307 19.5501 21.5835 19.5501C20.2369 19.5501 19.1511 20.9447 19.1511 22.8113C19.1511 24.0026 19.5558 24.8064 19.5558 24.8064C19.5558 24.8064 18.2245 30.4349 17.9809 31.4804C17.7084 32.641 17.8159 34.2697 17.9329 35.3325C12.9394 33.3758 9.4 28.5165 9.4 22.8286C9.4 15.4122 15.4141 9.4 22.8286 9.4C30.2431 9.4 36.2571 15.4122 36.2571 22.8286C36.2571 30.245 30.2431 36.2571 22.8286 36.2571ZM23.5 0C10.5221 0 0 10.5221 0 23.5C0 36.4779 10.5221 47 23.5 47C36.4779 47 47 36.4779 47 23.5C47 10.5221 36.4779 0 23.5 0Z" fill="#737373"/>
</g>
<defs>
<clipPath id="clip0_6766_189307">
<rect width="47" height="47" fill="white"/>
</clipPath>
</defs>
</svg>
